<?xml version="1.0" standalone="no"?>
<!DOCTYPE svg PUBLIC "-//W3C//DTD SVG 20010904//EN"
 "http://www.w3.org/TR/2001/REC-SVG-20010904/DTD/svg10.dtd">
<svg version="1.0" xmlns="http://www.w3.org/2000/svg"
 width="512.000000pt" height="512.000000pt" viewBox="0 0 512.000000 512.000000"
 preserveAspectRatio="xMidYMid meet">

<g transform="translate(0.000000,512.000000) scale(0.100000,-0.100000)"
fill="#000000" stroke="none">
<path d="M2897 5105 c-94 -18 -188 -54 -279 -107 -101 -58 -123 -104 -73 -153
34 -35 59 -31 144 20 259 155 587 132 820 -59 172 -141 272 -371 258 -591 -12
-182 -76 -324 -208 -457 l-86 -88 -410 0 -411 0 -51 40 c-104 82 -196 229
-232 367 -42 165 -21 345 60 512 37 77 39 85 27 115 -15 37 -54 54 -93 40 -18
-6 -38 -30 -65 -79 -159 -291 -130 -663 72 -930 l49 -65 -456 2 -457 3 -36
135 c-34 122 -35 136 -22 160 13 23 9 45 -58 290 -40 146 -80 281 -90 300 -25
48 -86 105 -140 129 -42 19 -65 21 -394 21 -231 0 -361 -4 -386 -11 -64 -19
-131 -78 -165 -144 -25 -49 -30 -70 -29 -129 1 -113 57 -202 164 -257 42 -22
57 -24 262 -27 l218 -4 16 -56 c30 -108 36 -122 59 -140 21 -17 77 -214 435
-1523 225 -827 421 -1528 435 -1556 22 -47 78 -102 118 -116 8 -3 5 -12 -10
-28 -39 -43 -81 -135 -93 -208 -52 -290 210 -553 502 -503 311 54 467 411 293
673 -14 21 -25 41 -25 44 0 3 254 5 565 5 l566 0 -32 -46 c-67 -98 -92 -224
-65 -338 22 -93 58 -155 127 -221 174 -166 440 -163 608 5 149 149 171 393 51
559 -30 40 -30 41 -8 41 68 1 173 91 196 168 39 131 -38 276 -166 312 -24 6
-296 10 -770 10 l-733 0 -24 -25 c-14 -13 -25 -31 -25 -40 0 -12 -14 -15 -75
-15 -57 0 -75 3 -75 14 0 8 -9 24 -19 37 -19 24 -22 24 -262 29 l-242 5 -42
153 -42 152 729 0 c448 0 736 4 747 10 10 5 24 23 31 40 12 30 13 30 86 30 66
0 74 -2 74 -19 0 -11 12 -29 27 -41 26 -21 36 -21 228 -18 172 3 205 6 235 22
48 25 89 64 110 106 9 19 143 411 296 870 244 732 278 842 278 895 -1 69 -24
123 -76 172 -72 69 -56 68 -635 71 -288 2 -523 7 -523 11 0 5 7 15 16 22 27
22 95 128 125 194 168 371 59 804 -267 1053 -179 137 -451 200 -677 157z
m-748 -2072 c13 -76 25 -148 28 -160 l5 -23 -225 0 c-206 0 -226 2 -231 18
-26 89 -76 281 -76 290 0 9 65 12 238 12 l239 0 22 -137z m1221 125 c0 -7 -11
-78 -25 -158 -14 -80 -25 -146 -25 -147 0 -2 -144 -3 -320 -3 l-320 0 -5 23
c-9 41 -45 264 -45 281 0 15 34 16 370 16 289 0 370 -3 370 -12z m926 -145
l-53 -158 -211 -3 c-117 -1 -212 1 -212 5 0 5 11 73 25 153 14 80 25 148 25
153 0 4 108 7 239 7 l239 0 -52 -157z m-2031 -675 c2 -13 14 -79 25 -148 11
-69 23 -135 25 -148 l5 -22 -181 2 -182 3 -43 160 c-24 88 -44 163 -44 168 0
4 88 7 195 7 194 0 195 0 200 -22z m970 0 c-2 -13 -14 -79 -25 -148 -11 -69
-23 -135 -25 -148 l-5 -22 -182 2 -182 3 -23 135 c-12 74 -25 150 -28 168 l-6
32 241 0 240 0 -5 -22z m787 -148 l-57 -170 -143 0 -144 0 6 28 c3 15 15 86
26 157 12 72 23 136 25 143 3 9 47 12 174 12 l169 0 -56 -170z"/>
<path d="M3023 4790 c-26 -11 -43 -40 -43 -74 0 -19 -9 -30 -37 -45 -72 -37
-120 -107 -130 -190 -10 -88 32 -163 122 -216 l45 -26 0 -130 0 -130 -22 7
c-13 4 -32 13 -43 20 -67 47 -153 -26 -115 -97 12 -21 75 -56 135 -74 33 -10
41 -17 46 -45 21 -99 149 -95 149 5 0 31 4 37 38 50 52 22 110 81 138 140 64
136 -3 299 -142 345 l-34 12 0 94 c0 52 3 94 8 94 4 0 16 -7 26 -15 49 -37
116 -3 116 59 0 41 -48 89 -110 107 -35 11 -40 16 -40 41 0 33 -39 78 -67 77
-10 0 -28 -4 -40 -9z m-43 -327 c-1 -38 -3 -44 -11 -30 -9 16 -4 77 7 77 2 0
4 -21 4 -47z m200 -366 c0 -29 -32 -97 -45 -97 -3 0 -5 42 -5 93 l1 92 24 -28
c16 -17 25 -40 25 -60z"/>
</g>
</svg>
