<?xml version="1.0" encoding="UTF-8" standalone="no" ?>
<!DOCTYPE svg PUBLIC "-//W3C//DTD SVG 1.1//EN" "http://www.w3.org/Graphics/SVG/1.1/DTD/svg11.dtd">
<svg xmlns="http://www.w3.org/2000/svg" xmlns:xlink="http://www.w3.org/1999/xlink" version="1.1" width="500" height="500" viewBox="0 0 500 500" xml:space="preserve">
<desc>Created with Fabric.js 4.6.0</desc>
<defs>
</defs>
<g transform="matrix(-2.81 0 0 2.81 260 220)" id="SCLQwytxviUQ70gYD_Nf6"  >
<g style="opacity: 0.82;" vector-effect="non-scaling-stroke"   >
		<g transform="matrix(1 0 0 1 0 -12.41)" id="SGjXmfFxq__vFjiMulP6V"  >
<path style="stroke: none; stroke-width: 1; stroke-dasharray: none; stroke-linecap: butt; stroke-dashoffset: 0; stroke-linejoin: miter; stroke-miterlimit: 4; fill: rgb(179,181,179); fill-rule: nonzero; opacity: 1;" vector-effect="non-scaling-stroke"  transform=" translate(-40, -27.59)" d="M 77.6 16.2 C 77.6 16.2 17.799999999999997 16.2 17.799999999999997 16.2 L 16.099999999999998 8.7 C 15.899999999999999 7.699999999999999 15.099999999999998 6.999999999999999 14.099999999999998 6.799999999999999 L 2.8 5 C 1.5 4.8 0.2 5.7 0 7 C -0.2 8.3 0.7 9.6 2 9.8 L 11.7 11.3 L 20 48.3 C 20.3 49.4 21.2 50.199999999999996 22.4 50.199999999999996 L 72.8 50.199999999999996 C 74 50.199999999999996 75 49.3 75.2 48.199999999999996 L 80 19 C 80.1 18.3 79.9 17.6 79.5 17 C 79 16.5 78.3 16.2 77.6 16.2 z" stroke-linecap="round" />
</g>
		<g transform="matrix(1 0 0 1 8.6 25.2)" id="Ywdhv6D9OeVvNeMz9aD1k"  >
<path style="stroke: none; stroke-width: 1; stroke-dasharray: none; stroke-linecap: butt; stroke-dashoffset: 0; stroke-linejoin: miter; stroke-miterlimit: 4; fill: rgb(179,181,179); fill-rule: nonzero; opacity: 1;" vector-effect="non-scaling-stroke"  transform=" translate(-48.6, -65.2)" d="M 63.7 55.4 C 58.300000000000004 55.4 53.900000000000006 59.8 53.900000000000006 65.2 C 53.900000000000006 70.60000000000001 58.300000000000004 75 63.7 75 C 69.1 75 73.5 70.6 73.5 65.2 C 73.4 59.8 69.1 55.4 63.7 55.4 z M 33.5 55.4 C 28.1 55.4 23.7 59.8 23.7 65.2 C 23.7 70.60000000000001 28.1 75 33.5 75 C 38.9 75 43.3 70.6 43.3 65.2 C 43.3 59.80000000000001 38.9 55.4 33.5 55.4 z" stroke-linecap="round" />
</g>
		<g transform="matrix(1 0 0 1 8.6 25.2)" id="gADiQ1JIs1tmEarMXHVOK"  >
<path style="stroke: none; stroke-width: 1; stroke-dasharray: none; stroke-linecap: butt; stroke-dashoffset: 0; stroke-linejoin: miter; stroke-miterlimit: 4; fill: rgb(255,255,255); fill-rule: nonzero; opacity: 1;" vector-effect="non-scaling-stroke"  transform=" translate(-48.6, -65.2)" d="M 38.4 65.2 C 38.4 67.9 36.199999999999996 70.10000000000001 33.5 70.10000000000001 C 30.800000000000004 70.10000000000001 28.6 67.9 28.6 65.2 C 28.6 62.5 30.8 60.300000000000004 33.5 60.300000000000004 C 36.2 60.300000000000004 38.4 62.5 38.4 65.2 z M 63.7 60.3 C 61 60.3 58.800000000000004 62.5 58.800000000000004 65.2 C 58.800000000000004 67.9 61.00000000000001 70.10000000000001 63.7 70.10000000000001 C 66.4 70.10000000000001 68.60000000000001 67.9 68.60000000000001 65.2 C 68.6 62.5 66.4 60.3 63.7 60.3 z" stroke-linecap="round" />
</g>
		<g transform="matrix(1 0 0 1 6.8 -6.85)" id="5OxbW-xMUzYPDN9Yqb-vk"  >
<path style="stroke: none; stroke-width: 1; stroke-dasharray: none; stroke-linecap: butt; stroke-dashoffset: 0; stroke-linejoin: miter; stroke-miterlimit: 4; fill: rgb(255,255,255); fill-rule: nonzero; opacity: 1;" vector-effect="non-scaling-stroke"  transform=" translate(-46.8, -33.15)" d="M 31.4 34.5 L 33 45.3 L 24.4 45.3 L 22 34.5 L 31.4 34.5 z M 36.2 45.3 L 45.800000000000004 45.3 L 45.800000000000004 34.5 L 34.7 34.5 L 36.2 45.3 z M 34.2 31.3 L 45.900000000000006 31.3 L 45.900000000000006 21 L 32.7 21 L 34.2 31.3 z M 29.4 21 L 18.9 21 L 21.2 31.2 L 30.9 31.2 L 29.4 21 z M 61.7 45.3 L 70.8 45.3 L 72.6 34.5 L 63.39999999999999 34.5 L 61.7 45.3 z M 63.7 31.3 L 73 31.3 L 74.7 21 L 65.2 21 L 63.7 31.3 z M 49.1 21 L 49.1 31.2 L 49.1 31.2 L 60.400000000000006 31.2 L 61.9 21 C 61.9 21 49.1 21 49.1 21 z M 49.1 45.3 L 58.3 45.3 L 60 34.5 L 49.1 34.5 L 49.1 45.3 z" stroke-linecap="round" />
</g>
</g>
</g>
</svg>